<?xml version="1.0" encoding="iso-8859-1"?>
<!-- Generator: Adobe Illustrator 16.0.0, SVG Export Plug-In . SVG Version: 6.00 Build 0)  -->
<!DOCTYPE svg PUBLIC "-//W3C//DTD SVG 1.1//EN" "http://www.w3.org/Graphics/SVG/1.1/DTD/svg11.dtd">
<svg version="1.1" id="Capa_1" xmlns="http://www.w3.org/2000/svg" xmlns:xlink="http://www.w3.org/1999/xlink" x="0px" y="0px"
	 width="637.091px" height="637.091px" viewBox="0 0 637.091 637.091" style="enable-background:new 0 0 637.091 637.091;"
	 xml:space="preserve">
<g>
	<g>
		<path fill="#959595" d="M606.828,542.622c0,22.036-17.251,39.852-38.665,39.852H201.04c-10.804-0.059-23.65-0.137-36.574-0.312
			c-9.759-0.155-12.029-6.398-12.351-11.339c0.418-8.927,2.621-21.044,4.104-28.259c0.379-1.692,0.729-3.365,1.065-5.096
			c0.131-0.594,0.219-1.002,0.219-1.002l0,0c4.381-22.143,5.519-43.118,5.519-43.118h-0.029c0.189-3.142,0.277-5.894,0.277-7.653
			c0-1.73,0-2.646,0-2.646V90.662c0-21.929,17.285-39.871,38.655-39.871h366.239c21.365,0,38.646,17.942,38.646,39.871v451.96
			H606.828L606.828,542.622z M133.683,467.801c0,13.819-3.943,50.957-4.726,58.24c-0.35,1.974-0.588,3.831-1.006,5.894l0.029-0.02
			c0,0-3.627,22.774-9.618,38.791c-2.363,6.748-7.333,9.219-9.972,10.055c-29.086,5.037-44.242-5.192-47.646-7.974
			c-4.274-4.065-8.854-9.686-13.293-18.156c-0.161-0.272-0.35-0.495-0.491-0.777c-0.316-0.613-0.506-1.206-0.808-1.838
			c-0.744-1.508-1.492-2.859-2.227-4.532c-0.379-0.895-0.588-1.711-0.846-2.548c-8.757-20.12-12.7-38.606-12.618-60.934
			c0.078-25.604,0.836-262.114,0.836-262.114s-2.023-54.166,34.055-53.942c30.603,0.194,51.982,0.326,57.827,0.355l0,0h0.029
			c1.026,0.02,1.721,0.02,1.721,0.02h0.248c3.029,0.301,8.426,2.271,8.475,12.807l-0.02,5.985h0.059L133.683,467.801
			L133.683,467.801L133.683,467.801z M593.02,21.662h-417.38c-24.389,0-44.067,20.076-44.067,44.572v59.698
			c-0.248,5.047-1.813,13.094-9.34,13.064c0,0,0,0-0.01,0c-16.479-0.077-40.43-0.189-69.773-0.301
			C14.825,138.52,3.447,165.477,0,183.924v323.495c0,0,1.133,31.41,8.771,50.14c3.788,8.323,8.577,16.726,14.558,25.507
			c9.642,14.149,24.37,21.637,36.438,25.576h-0.029c0,0,5.786,4.647,48.842,6.787h489.03c22.191-2.324,39.481-21.015,39.481-44.11
			V66.234C637.071,41.738,617.408,21.662,593.02,21.662L593.02,21.662z"/>
		<path fill="#959595" d="M241.328,153.593h288.443c0,0,20.266-1.634,20.052,14.84c0,6.044-0.467,14.869-20.693,14.869
			c-20.169,0-287.792,0-287.792,0s-15.346-2.134-14.864-14.878C226.683,161.251,230.646,153.593,241.328,153.593L241.328,153.593z"
			/>
		<path fill="#959595" d="M241.328,228.487h288.443c0,0,20.266-1.619,20.052,14.859c0,6.043-0.467,14.859-20.693,14.859
			c-20.169,0-287.792,0-287.792,0s-15.346-2.135-14.864-14.878C226.683,236.154,230.646,228.487,241.328,228.487L241.328,228.487z"
			/>
		<path fill="#959595" d="M238.829,303.72h288.473c0,0,20.266-1.624,20.031,14.859c0,6.039-0.466,14.849-20.674,14.849c-20.168,0-287.82,0-287.82,0
			s-15.316-2.12-14.854-14.868C224.223,311.393,228.166,303.72,238.829,303.72L238.829,303.72z"/>
		<path fill="#959595" d="M238.829,376.138h288.473c0,0,20.266-1.614,20.031,14.859c0,6.02-0.466,14.85-20.674,14.85c-20.168,0-287.82,0-287.82,0
			s-15.316-2.12-14.854-14.85C224.223,383.821,228.166,376.138,238.829,376.138L238.829,376.138z"/>
		<path fill="#959595" d="M238.829,451.659h288.473c0,0,20.266-1.614,20.031,14.859c0,6.02-0.466,14.849-20.674,14.849c-20.168,0-287.82,0-287.82,0
			s-15.316-2.1-14.854-14.849C224.223,459.341,228.166,451.659,238.829,451.659L238.829,451.659z"/>
	</g>
</g>
<g>
</g>
<g>
</g>
<g>
</g>
<g>
</g>
<g>
</g>
<g>
</g>
<g>
</g>
<g>
</g>
<g>
</g>
<g>
</g>
<g>
</g>
<g>
</g>
<g>
</g>
<g>
</g>
<g>
</g>
</svg>
